<?xml version="1.0" encoding="UTF-8"?>
<svg width="31px" height="31px" viewBox="0 0 31 31" version="1.1" xmlns="http://www.w3.org/2000/svg" xmlns:xlink="http://www.w3.org/1999/xlink">
    <!-- Generator: Sketch 46.2 (44496) - http://www.bohemiancoding.com/sketch -->
    <title>Shape</title>
    <desc>Created with Sketch.</desc>
    <defs></defs>
    <g id="Page-1" stroke="none" stroke-width="1" fill="none" fill-rule="evenodd">
        <g id="twitter-icon" fill="#FFFFFF">
            <path d="M25.7142857,9.68303571 C24.964282,10.0178588 24.1540222,10.2455351 23.2834821,10.3660714 C24.194201,9.83035446 24.8169626,9.04688016 25.1517857,8.015625 C24.2812456,8.52455612 23.3839332,8.86607056 22.4598214,9.04017857 C21.6428531,8.15624558 20.6183097,7.71428571 19.3861607,7.71428571 C18.2209763,7.71428571 17.2265666,8.12611195 16.4029018,8.94977679 C15.579237,9.77344162 15.1674107,10.7678513 15.1674107,11.9330357 C15.1674107,12.3214305 15.2008925,12.6428559 15.2678571,12.8973214 C13.5401699,12.803571 11.9196504,12.3683075 10.40625,11.5915179 C8.89284958,10.8147283 7.60714815,9.77679221 6.54910714,8.47767857 C6.16071234,9.14732478 5.96651786,9.85713911 5.96651786,10.6071429 C5.96651786,12.1339362 6.57588676,13.3057995 7.79464286,14.1227679 C7.16517542,14.1093749 6.49553926,13.9352695 5.78571429,13.6004464 L5.78571429,13.640625 C5.78571429,14.6450943 6.12053237,15.5390586 6.79017857,16.3225446 C7.45982478,17.1060307 8.28347725,17.5915169 9.26116071,17.7790179 C8.87276592,17.8861612 8.53125147,17.9397321 8.23660714,17.9397321 C8.06249913,17.9397321 7.80134103,17.9129467 7.453125,17.859375 C7.73437641,18.7031292 8.23325535,19.3995508 8.94977679,19.9486607 C9.66629823,20.4977706 10.4799062,20.7790178 11.390625,20.7924107 C9.8370458,21.9977739 8.08929542,22.6004464 6.14732143,22.6004464 C5.7991054,22.6004464 5.46428732,22.5803573 5.14285714,22.5401786 C7.12500991,23.7991134 9.28123835,24.4285714 11.6116071,24.4285714 C13.1116146,24.4285714 14.5178506,24.1908506 15.8303571,23.7154018 C17.1428637,23.239953 18.2678525,22.6037986 19.2053571,21.8069196 C20.1428618,21.0100407 20.9497734,20.0926391 21.6261161,19.0546875 C22.3024587,18.0167359 22.8046859,16.9319253 23.1328125,15.8002232 C23.4609391,14.6685211 23.625,13.5401842 23.625,12.4151786 C23.625,12.1741059 23.6183036,11.9933042 23.6049107,11.8727679 C24.4486649,11.2700863 25.1517829,10.5401829 25.7142857,9.68303571 Z M30.8571429,5.78571429 L30.8571429,25.0714286 C30.8571429,26.6651865 30.2913003,28.0278961 29.1595982,29.1595982 C28.0278961,30.2913003 26.6651865,30.8571429 25.0714286,30.8571429 L5.78571429,30.8571429 C4.19195632,30.8571429 2.82924673,30.2913003 1.69754464,29.1595982 C0.565842556,28.0278961 0,26.6651865 0,25.0714286 L0,5.78571429 C0,4.19195632 0.565842556,2.82924673 1.69754464,1.69754464 C2.82924673,0.565842556 4.19195632,0 5.78571429,0 L25.0714286,0 C26.6651865,0 28.0278961,0.565842556 29.1595982,1.69754464 C30.2913003,2.82924673 30.8571429,4.19195632 30.8571429,5.78571429 Z" id="Shape"></path>
        </g>
    </g>
</svg>