<svg xmlns="http://www.w3.org/2000/svg" width="31" height="31" viewBox="0 0 31 31">
  <path fill="#333" fill-rule="evenodd" d="M25.0714286,0 C26.6651865,0 28.0278961,0.565842556 29.1595982,1.69754464 C30.2913003,2.82924673 30.8571429,4.19195632 30.8571429,5.78571429 L30.8571429,25.0714286 C30.8571429,26.6651865 30.2913003,28.0278961 29.1595982,29.1595982 C28.0278961,30.2913003 26.6651865,30.8571429 25.0714286,30.8571429 L5.78571429,30.8571429 C4.19195632,30.8571429 2.82924673,30.2913003 1.69754464,29.1595982 C0.565842556,28.0278961 0,26.6651865 0,25.0714286 L0,5.78571429 C0,4.19195632 0.565842556,2.82924673 1.69754464,1.69754464 C2.82924673,0.565842556 4.19195632,0 5.78571429,0 L25.0714286,0 Z M25.7142857,21.2142857 L25.7142857,12.4553571 C25.2991051,12.9241095 24.8705379,13.2924094 24.4285714,13.5602679 C23.973212,13.8549122 23.0859441,14.4241029 21.7667411,15.2678571 C20.447538,16.1116114 19.4330393,16.7745512 18.7232143,17.2566964 C17.4107077,18.1808082 16.3125044,18.6428571 15.4285714,18.6428571 C14.5446384,18.6428571 13.4464351,18.1808082 12.1339286,17.2566964 C11.5044611,16.8281229 10.5535778,16.2087094 9.28125,15.3984375 C8.00892221,14.5881656 7.05803886,13.9687521 6.42857143,13.5401786 C6.26785634,13.4330352 6.04687641,13.2522334 5.765625,12.9977679 C5.48437359,12.7433023 5.27678638,12.5625005 5.14285714,12.4553571 L5.14285714,21.2142857 C5.14285714,21.7500027 5.33035527,22.2053553 5.70535714,22.5803571 C6.08035902,22.955359 6.53571161,23.1428571 7.07142857,23.1428571 L23.7857143,23.1428571 C24.3214312,23.1428571 24.7767838,22.955359 25.1517857,22.5803571 C25.5267876,22.2053553 25.7142857,21.7500027 25.7142857,21.2142857 Z M25.7142857,9.703125 C25.7142857,9.15401511 25.5301358,8.6852698 25.1618304,8.296875 C24.7935249,7.9084802 24.3348242,7.71428571 23.7857143,7.71428571 L7.07142857,7.71428571 C6.53571161,7.71428571 6.08035902,7.90178384 5.70535714,8.27678571 C5.33035527,8.65178759 5.14285714,9.10714018 5.14285714,9.64285714 C5.14285714,10.1383953 5.34709617,10.650667 5.75558036,11.1796875 C6.16406454,11.708708 6.61606895,12.1406233 7.11160714,12.4754464 C7.74107458,12.90402 8.6618243,13.4999962 9.87388393,14.2633929 C11.0859436,15.0267895 11.9531224,15.5825875 12.4754464,15.9308036 C12.5156252,15.9575894 12.6294633,16.0345976 12.8169643,16.1618304 C13.0044652,16.2890631 13.1450888,16.3828122 13.2388393,16.4430804 C13.3325898,16.5033485 13.4732133,16.5904012 13.6607143,16.7042411 C13.8482152,16.8180809 14.0055797,16.9051336 14.1328125,16.9654018 C14.2600453,17.0256699 14.4040171,17.0892854 14.5647321,17.15625 C14.7254472,17.2232146 14.8761154,17.2734373 15.0167411,17.3069196 C15.1573668,17.340402 15.2946422,17.3571429 15.4285714,17.3571429 C15.5625007,17.3571429 15.6997761,17.340402 15.8404018,17.3069196 C15.9810275,17.2734373 16.1316956,17.2232146 16.2924107,17.15625 C16.4531258,17.0892854 16.5970976,17.0256699 16.7243304,16.9654018 C16.8515631,16.9051336 17.0089276,16.8180809 17.1964286,16.7042411 C17.3839295,16.5904012 17.5245531,16.5033485 17.6183036,16.4430804 C17.712054,16.3828122 17.8526776,16.2890631 18.0401786,16.1618304 C18.2276795,16.0345976 18.3415177,15.9575894 18.3816964,15.9308036 L23.7455357,12.4352679 C24.2142881,12.1272306 24.6595961,11.708708 25.0814732,11.1796875 C25.5033503,10.650667 25.7142857,10.1584844 25.7142857,9.703125 Z"/>
</svg>
