<svg xmlns="http://www.w3.org/2000/svg" width="31" height="31" viewBox="0 0 31 31">
  <path fill="#333" fill-rule="evenodd" d="M4.76116071,25.8348214 L9.40178571,25.8348214 L9.40178571,11.8928571 L4.76116071,11.8928571 L4.76116071,25.8348214 Z M9.703125,7.59375 C9.68973208,6.89731795 9.44866306,6.32143085 8.97991071,5.86607143 C8.51115837,5.41071201 7.88839674,5.18303571 7.11160714,5.18303571 C6.33481754,5.18303571 5.70201137,5.41071201 5.21316964,5.86607143 C4.72432791,6.32143085 4.47991071,6.89731795 4.47991071,7.59375 C4.47991071,8.27678913 4.71763155,8.84932805 5.19308036,9.31138393 C5.66852916,9.77343981 6.28794261,10.0044643 7.05133929,10.0044643 L7.07142857,10.0044643 C7.86161109,10.0044643 8.49776545,9.77343981 8.97991071,9.31138393 C9.46205598,8.84932805 9.703125,8.27678913 9.703125,7.59375 Z M16.59375,13.8582913 L16.59375,13.921875 L16.5535714,13.921875 C16.566886,13.9005351 16.5802789,13.8793406 16.59375,13.8582913 L16.59375,13.8582913 Z M16.59375,13.8582913 L16.59375,11.8928571 L11.953125,11.8928571 C11.9933038,12.7767901 11.9933038,17.4240651 11.953125,25.8348214 L16.59375,25.8348214 L16.59375,18.0401786 C16.59375,17.5312475 16.6406245,17.1562512 16.734375,16.9151786 C16.9352689,16.4464262 17.2366051,16.0479927 17.6383929,15.7198661 C18.0401806,15.3917394 18.5357113,15.2276786 19.125,15.2276786 C20.6785792,15.2276786 21.4553571,16.2790073 21.4553571,18.3816964 L21.4553571,25.8348214 L26.0959821,25.8348214 L26.0959821,17.8392857 C26.0959821,15.7767754 25.6071477,14.2165231 24.6294643,13.1584821 C23.6517808,12.1004411 22.359383,11.5714286 20.7522321,11.5714286 C18.9555998,11.5714286 17.5694525,12.3337086 16.59375,13.8582913 L16.59375,13.8582913 Z M30.8571429,5.78571429 L30.8571429,25.0714286 C30.8571429,26.6651865 30.2913003,28.0278961 29.1595982,29.1595982 C28.0278961,30.2913003 26.6651865,30.8571429 25.0714286,30.8571429 L5.78571429,30.8571429 C4.19195632,30.8571429 2.82924673,30.2913003 1.69754464,29.1595982 C0.565842556,28.0278961 0,26.6651865 0,25.0714286 L0,5.78571429 C0,4.19195632 0.565842556,2.82924673 1.69754464,1.69754464 C2.82924673,0.565842556 4.19195632,0 5.78571429,0 L25.0714286,0 C26.6651865,0 28.0278961,0.565842556 29.1595982,1.69754464 C30.2913003,2.82924673 30.8571429,4.19195632 30.8571429,5.78571429 Z"/>
</svg>
