<?xml version="1.0" encoding="UTF-8" standalone="no"?>
<svg width="1280px" height="771px" viewBox="0 0 1280 771" version="1.1" xmlns="http://www.w3.org/2000/svg" xmlns:xlink="http://www.w3.org/1999/xlink" style="background: #FFFFFF;">
    <!-- Generator: Sketch 44 (41411) - http://www.bohemiancoding.com/sketch -->
    <title>A - Overview Copy</title>
    <desc>Created with Sketch.</desc>
    <defs></defs>
    <g id="Assets" stroke="none" stroke-width="1" fill="none" fill-rule="evenodd">
        <g id="A---Overview-Copy">
            <g id="Header" transform="translate(0.000000, 63.000000)">
                <rect id="Rectangle-23" fill="#005EA5" x="0" y="0" width="1280" height="139"></rect>
                <text id="Performance-dashboar" font-family="GDSTransportWebsite-Bold, GDS Transport Website" font-size="36" font-weight="bold" line-spacing="44" fill="#FFFFFF">
                    <tspan x="47" y="79">Performance dashboard </tspan>
                </text>
            </g>
            <rect id="Background" fill="#000000" x="0" y="0" width="1285" height="63"></rect>
            <g id="search19-+-Rectangle-151-Copy-+-Search" transform="translate(861.000000, 26.000000)" font-size="16" font-family="GDSTransportWebsite, GDS Transport Website" line-spacing="22" fill="#000000" font-weight="300">
                <text id="Search">
                    <tspan x="0" y="15">Search</tspan>
                </text>
            </g>
            <text id="Type-something" font-family="FontAwesome" font-size="24" font-weight="normal" fill-opacity="0.897814764" fill="#FFFFFF">
                <tspan x="1032" y="40"></tspan>
            </text>
            <text id="" font-family="FontAwesome" font-size="20" font-weight="normal" fill="#FFFFFF">
                <tspan x="923.645669" y="38"></tspan>
            </text>
            <g id="GovUK-Crown" transform="translate(46.000000, 21.000000)" fill="#FFFFFF">
                <path d="M5.72982093,5.62868877 C6.47789963,5.93361125 7.3264839,5.58512842 7.63114875,4.85416724 C7.93767912,4.12551085 7.58707553,3.27827349 6.83911343,2.97473388 C6.105959,2.67730195 5.25364366,3.03269912 4.94851243,3.76412125 C4.6434978,4.4926624 4.99631671,5.33171779 5.72982093,5.62868877" id="Fill-2"></path>
                <path d="M1.85882949,8.49833453 C2.60692926,8.80313512 3.45565405,8.45454466 3.76021088,7.72394514 C4.06663329,6.99507416 3.71625302,6.14785529 2.96815325,5.8443223 C2.23509476,5.54689685 1.3825222,5.9020558 1.07749898,6.63403816 C0.772592351,7.361872 1.1253046,8.20113956 1.85882949,8.49833453" id="Fill-3"></path>
                <path d="M0.89108439,12.3243559 C1.63927038,12.6292806 2.48784411,12.2806799 2.79250516,11.5498285 C3.09891513,10.8211666 2.7483159,9.97380766 2.0004797,9.67049625 C1.26745097,9.37283159 0.414913036,9.72834668 0.109785604,10.4600048 C-0.195225233,11.1880905 0.157705885,12.0273827 0.89108439,12.3243559" id="Fill-4"></path>
                <path d="M10.5685009,6.58527039 C11.316467,6.89008454 12.1652891,6.54159381 12.4699555,5.81084655 C12.7762544,5.08194316 12.4258821,4.2346866 11.677916,3.9313706 C10.9447576,3.63370144 10.0922045,3.98922191 9.7873048,4.72066061 C9.48217194,5.44875731 9.83487615,6.28829268 10.5685009,6.58527039" id="Fill-5"></path>
                <path d="M25.2380292,5.62868877 C24.4898692,5.93361125 23.641325,5.58512842 23.3364414,4.85416724 C23.0302753,4.12551085 23.3805125,3.27827349 24.1284393,2.97473388 C24.8617923,2.67730195 25.7140674,3.03269912 26.0191842,3.76412125 C26.324301,4.4926624 25.9713822,5.33171779 25.2380292,5.62868877" id="Fill-6"></path>
                <path d="M28.1410639,8.49833453 C27.392869,8.80313512 26.5444018,8.45454466 26.2397371,7.72394514 C25.9334401,6.99507416 26.2836937,6.14785529 27.031772,5.8443223 C27.7649261,5.54689685 28.6173576,5.9020558 28.9224886,6.63403816 C29.2275031,7.361872 28.8744512,8.20113956 28.1410639,8.49833453" id="Fill-7"></path>
                <path d="M29.1087494,12.3243559 C28.3609987,12.6292806 27.5121565,12.2806799 27.2075993,11.5498285 C26.90106,10.8211666 27.2514406,9.97380766 27.9994245,9.67049625 C28.7327169,9.37283159 29.5850571,9.72834668 29.8900806,10.4600048 C30.1953373,11.1880905 29.8423916,12.0273827 29.1087494,12.3243559" id="Fill-8"></path>
                <path d="M20.3991484,6.58527039 C19.6511001,6.89008454 18.8026669,6.54159381 18.4977813,5.81084655 C18.1914966,5.08194316 18.5418527,4.2346866 19.2897844,3.9313706 C20.0230257,3.63370144 20.875423,3.98922191 21.1805418,4.72066061 C21.485544,5.44875731 21.1326228,6.28829268 20.3991484,6.58527039" id="Fill-9"></path>
                <path d="M16.9655922,4.17123642 L16.9716397,4.16634928 L19.3548387,5.2601431 L19.3548387,2.19128601 L16.97421,2.84972849 L16.9677088,2.84352051 C16.9007319,2.76691135 16.8236253,2.69849145 16.736389,2.63958165 L16.730039,2.63363784 L17.6876729,0 L15.9677419,0.00013208475 L14.2473574,0 L15.2051425,2.63363784 L15.1984901,2.63958165 C15.1117074,2.69849145 15.033996,2.76691135 14.9677751,2.84352051 L14.9606692,2.84972849 L12.5806452,2.19128601 L12.5806452,5.2601431 L14.9638441,4.16634928 L14.9695893,4.17123642 C15.0401948,4.2519402 15.1228954,4.32366222 15.2158769,4.3844212 L13.847159,7.99178782 C13.8454959,7.9962787 13.8436816,8.0006375 13.8420186,8.0049963 L13.8408091,8.00882675 L13.8411114,8.00909092 C13.7774607,8.18938661 13.7434431,8.38038116 13.7434431,8.57864037 C13.7434431,9.55461459 14.5674254,10.3601995 15.6408704,10.4986243 C15.6567453,10.5008697 15.6723178,10.5031152 15.6884951,10.5048323 C15.7799647,10.5151349 15.8724926,10.5217391 15.9672884,10.5217391 L15.9680443,10.5217391 C16.0623865,10.5217391 16.1550656,10.5151349 16.2469888,10.5048323 C16.2625613,10.5031152 16.278285,10.5008697 16.2944623,10.4986243 C17.3676049,10.3601995 18.1920408,9.55461459 18.1920408,8.57864037 C18.1920408,8.38038116 18.1574184,8.18938661 18.0940701,8.00909092 L18.0943724,8.00882675 L18.0931629,8.0049963 C18.091651,8.0006375 18.0895344,7.9962787 18.0877201,7.99178782 L16.7194558,4.3844212 C16.8121349,4.32366222 16.8951379,4.2519402 16.9655922,4.17123642" id="Fill-10"></path>
                <path d="M14.9975398,21.2185482 C18.8727939,21.2185482 22.5410001,21.4995383 25.8092244,22 C26.7371204,17.8264377 27.866367,15.4346964 29.0322581,13.7318519 L26.8365656,12.8959479 C27.0551378,14.0887703 27.090099,14.6439614 26.8453706,15.4105878 C26.483328,15.0319162 26.1403199,14.3352602 25.8724135,13.2708785 L24.8088163,17.0616125 C25.4559868,16.5845667 25.955155,16.2764197 26.5261879,16.2615943 C25.5130901,18.5956966 24.2487898,19.1966109 23.4292735,19.0343627 C22.4283474,18.8378913 21.968543,17.8831068 22.1236671,17.0733897 C22.353634,15.9255977 23.4543937,15.6264569 23.9684528,16.9612985 C24.9515098,14.8152157 23.2836018,14.1466864 22.2100342,14.7815468 C23.8589077,13.0220332 24.0475687,11.4580211 22.7167125,9.56521739 C20.8626038,11.081705 20.8407207,12.5837828 21.6752574,14.6967509 C20.5924962,13.3707768 18.9074962,14.0826739 19.5160799,16.2252928 C20.2971389,14.9317407 21.3306954,15.7453373 21.1684496,16.9737685 C21.031583,18.0449394 19.7103088,18.9095244 18.0653198,18.7561437 C15.70777,18.5273889 15.5674072,16.7867188 15.5086206,15.3461595 C16.0884585,15.2310201 17.1318559,15.805886 18.0216831,17.143083 L18.3496709,13.1224858 C17.3813753,14.2021086 16.5017775,14.4068933 15.5246769,14.440008 C15.8499455,13.3542888 17.3446013,11.5751004 17.3446013,11.5751004 L15.1728637,11.5748232 L15.1707919,11.5748232 L12.6551397,11.5751004 C12.6551397,11.5751004 14.149925,13.3542888 14.4749347,14.440008 C13.498093,14.4068933 12.6184952,14.2021086 11.6499407,13.1224858 L11.9781874,17.143083 C12.8682735,15.805886 13.9115415,15.2310201 14.4911204,15.3461595 C14.4327222,16.7867188 14.2921006,18.5273889 11.9345507,18.7561437 C10.2894323,18.9095244 8.96841705,18.0449394 8.83142096,16.9737685 C8.66904564,15.7453373 9.70260213,14.9317407 10.4836611,16.2252928 C11.0923744,14.0826739 9.40724478,13.3707768 8.32474261,14.6967509 C9.1590203,12.5837828 9.13713718,11.081705 7.28315799,9.56521739 C5.95217237,11.4580211 6.14070385,13.0220332 7.78957737,14.7815468 C6.71600973,14.1466864 5.04823127,14.8152157 6.03128826,16.9612985 C6.54547679,15.6264569 7.64636596,15.9255977 7.87646241,17.0733897 C8.03158652,17.8831068 7.57113464,18.8378913 6.57085603,19.0343627 C5.75133973,19.1966109 4.4866509,18.5956966 3.47355317,16.2615943 C4.04484499,16.2764197 4.54349521,16.5845667 5.19118371,17.0616125 L4.12758648,13.2708785 C3.8591622,14.3352602 3.51667198,15.0319162 3.1544999,15.4105878 C2.90977154,14.6439614 2.94460325,14.0887703 3.162787,12.8959479 L0.967741935,13.7318519 C2.13376251,15.4344193 3.26249115,17.8258835 4.19025766,21.9990301 C7.45744602,21.4991226 11.1239689,21.2185482 14.9975398,21.2185482" id="Fill-11"></path>
            </g>
            <g id="Live-button" transform="translate(52.000000, 166.000000)">
                <rect id="Rectangle-3" fill="#FFFFFF" x="0" y="0" width="49" height="26" rx="3"></rect>
                <text id="Live" font-family="GDSTransportWebsite-Bold, GDS Transport Website" font-size="19" font-weight="bold" fill="#00529D">
                    <tspan x="7" y="19">Live</tspan>
                </text>
            </g>
            <text id="4.2%" font-family="GDSTransportWebsite, GDS Transport Website" font-size="17" font-weight="300" fill="#00823B">
                <tspan x="331" y="629">4.2%</tspan>
            </text>
            <text id="4.2%-copy" font-family="GDSTransportWebsite, GDS Transport Website" font-size="17" font-weight="300" fill="#00823B">
                <tspan x="331" y="599">4.2%</tspan>
            </text>
            <text id="4.2%-copy-2" font-family="GDSTransportWebsite, GDS Transport Website" font-size="17" font-weight="300" fill="#00823B">
                <tspan x="225" y="548">4.2%</tspan>
            </text>
            <text id="" font-family="FontAwesome" font-size="15" font-weight="normal" fill="#00823B">
                <tspan x="311" y="627"></tspan>
            </text>
            <text id="-copy" font-family="FontAwesome" font-size="15" font-weight="normal" fill="#00823B">
                <tspan x="311" y="597"></tspan>
            </text>
            <text id="-copy-2" font-family="FontAwesome" font-size="15" font-weight="normal" fill="#00823B">
                <tspan x="205" y="546"></tspan>
            </text>
            <text id="8,145" font-family="GDSTransportWebsite-Bold, GDS Transport Website" font-size="60" font-weight="bold" fill="#000000">
                <tspan x="50" y="518">8,145</tspan>
            </text>
            <text id="Reports-created" font-family="GDSTransportWebsite-Bold, GDS Transport Website" font-size="19" font-weight="bold" line-spacing="27" fill="#000000">
                <tspan x="50" y="548">Reports created</tspan>
            </text>
            <text id="62,315" font-family="GDSTransportWebsite-Bold, GDS Transport Website" font-size="60" font-weight="bold" fill="#000000">
                <tspan x="48" y="785">62,315</tspan>
            </text>
            <g id="Group" transform="translate(454.000000, 740.000000)">
                <g id="Graph-Copy">
                    <path d="M1.1098204,0.5 L776.825067,0.5" id="Line-Copy-12" stroke="#F2F2F2" stroke-linecap="square"></path>
                    <text id="60" font-family="GDSTransportWebsite, GDS Transport Website" font-size="10" font-weight="300" fill="#000000">
                        <tspan x="2" y="13">60</tspan>
                    </text>
                </g>
            </g>
            <text id="Report-sections" font-family="GDSTransportWebsite-Bold, GDS Transport Website" font-size="18" font-weight="bold" line-spacing="27" fill="#B2B2B2">
                <tspan x="773.023438" y="759">Report sections</tspan>
            </text>
            <g id="Group-2" transform="translate(453.000000, 469.000000)">
                <g id="Graph-Copy">
                    <path d="M1.1098204,172.5 L776.825067,172.5" id="Line-Copy-9" stroke="#969696" stroke-linecap="square"></path>
                    <path d="M1.1098204,115.5 L776.825067,115.5" id="Line-Copy-10" stroke="#F2F2F2" stroke-linecap="square"></path>
                    <path d="M1.1098204,58.5 L776.825067,58.5" id="Line-Copy-11" stroke="#F2F2F2" stroke-linecap="square"></path>
                    <path d="M1.1098204,1.5 L776.825067,1.5" id="Line-Copy-12" stroke="#F2F2F2" stroke-linecap="square"></path>
                    <text id="10" font-family="GDSTransportWebsite, GDS Transport Website" font-size="10" font-weight="300" fill="#000000">
                        <tspan x="2" y="128">10</tspan>
                    </text>
                    <text id="00:00" font-family="GDSTransportWebsite, GDS Transport Website" font-size="10" font-weight="300" fill="#000000">
                        <tspan x="62" y="187">00:00</tspan>
                    </text>
                    <text id="03:00" font-family="GDSTransportWebsite, GDS Transport Website" font-size="10" font-weight="300" fill="#000000">
                        <tspan x="193.4" y="187">03:00</tspan>
                    </text>
                    <text id="06:00" font-family="GDSTransportWebsite, GDS Transport Website" font-size="10" font-weight="300" fill="#000000">
                        <tspan x="322.8" y="187">06:00</tspan>
                    </text>
                    <text id="09:00" font-family="GDSTransportWebsite, GDS Transport Website" font-size="10" font-weight="300" fill="#000000">
                        <tspan x="454.2" y="187">09:00</tspan>
                    </text>
                    <text id="12:00" font-family="GDSTransportWebsite, GDS Transport Website" font-size="10" font-weight="300" fill="#000000">
                        <tspan x="581.6" y="187">12:00</tspan>
                    </text>
                    <text id="15:00" font-family="GDSTransportWebsite, GDS Transport Website" font-size="10" font-weight="300" fill="#000000">
                        <tspan x="723" y="187">15:00</tspan>
                    </text>
                    <text id="20" font-family="GDSTransportWebsite, GDS Transport Website" font-size="10" font-weight="300" fill="#000000">
                        <tspan x="2" y="69">20</tspan>
                    </text>
                    <text id="30" font-family="GDSTransportWebsite, GDS Transport Website" font-size="10" font-weight="300" fill="#000000">
                        <tspan x="2" y="14">30</tspan>
                    </text>
                    <polyline id="Path-28" stroke="#005EA5" stroke-width="3" points="0.930664062 156.1875 101.914248 116.300781 225.04528 110.523438 351.032128 85.8710938 472.854244 130.621094 604.708901 138.703125 776.97168 22.9189453"></polyline>
                    <polygon id="Path-29" fill-opacity="0.0700000003" fill="#005EA5" points="3.41367724 156.302734 103.664543 116.142578 227.795023 110.330078 353.565575 85.9355469 475.323341 131.074219 606.860183 138.886719 777.041016 23.8242188 777.041016 172.955244 1 172.955244 1 158.582641"></polygon>
                    <polygon id="Path-29" fill-opacity="0.0700000003" fill="#005EA5" points="3.41367724 156.302734 103.664543 116.142578 227.795023 110.330078 353.565575 85.9355469 401.149179 103.575988 475.323341 131.074219 606.860183 138.886719 777.041016 23.8242188 777.041016 172.955244 1 172.955244 1 158.582641"></polygon>
                </g>
                <text id="Reports" font-family="GDSTransportWebsite-Bold, GDS Transport Website" font-size="18" font-weight="bold" line-spacing="27" fill="#B2B2B2">
                    <tspan x="356.493652" y="23">Reports</tspan>
                </text>
            </g>
            <path d="M52.5,700.5 L1227.81695,700.5" id="Line-Copy-8" stroke="#E2E2E2" stroke-linecap="square"></path>
            <path d="M48.7137009,361.5 L1228.81695,361.5" id="Line-Copy-8" stroke="#848484" stroke-linecap="square"></path>
            <text id="Report-type" font-family="GDSTransportWebsite, GDS Transport Website" font-size="19" font-weight="300" line-spacing="22" fill="#000000">
                <tspan x="50" y="631">Report type</tspan>
            </text>
            <text id="32" font-family="GDSTransportWebsite-Bold, GDS Transport Website" font-size="22" font-weight="bold" fill="#000000">
                <tspan x="260" y="630">32</tspan>
            </text>
            <text id="Report-type" font-family="GDSTransportWebsite, GDS Transport Website" font-size="19" font-weight="300" line-spacing="22" fill="#000000">
                <tspan x="50" y="601">Report type</tspan>
            </text>
            <text id="251" font-family="GDSTransportWebsite-Bold, GDS Transport Website" font-size="22" font-weight="bold" fill="#000000">
                <tspan x="252" y="600">251</tspan>
            </text>
            <text id="Users-online" font-family="GDSTransportWebsite-Bold, GDS Transport Website" font-size="22" font-weight="bold" line-spacing="27" fill="#000000">
                <tspan x="51" y="324.430664">Users online</tspan>
            </text>
            <text id="1,421" font-family="GDSTransportWebsite-Bold, GDS Transport Website" font-size="60" font-weight="bold" fill="#000000">
                <tspan x="50" y="290.430664">1,421</tspan>
            </text>
            <text id="00:10:51" font-family="GDSTransportWebsite-Bold, GDS Transport Website" font-size="60" font-weight="bold" fill="#000000">
                <tspan x="258" y="290.430664">00:10:51</tspan>
            </text>
            <text id="Average-page-load-ti" font-family="GDSTransportWebsite-Bold, GDS Transport Website" font-size="22" font-weight="bold" line-spacing="27" fill="#000000">
                <tspan x="258" y="324.430664">Average page load time</tspan>
            </text>
            <text id="100-days,-23:06:19" font-family="GDSTransportWebsite-Bold, GDS Transport Website" font-size="60" font-weight="bold" fill="#000000">
                <tspan x="562" y="290.430664">100 days, 23:06:19</tspan>
            </text>
            <text id="Since-last-downtime" font-family="GDSTransportWebsite-Bold, GDS Transport Website" font-size="22" font-weight="bold" line-spacing="27" fill="#000000">
                <tspan x="562" y="324.430664">Since last downtime</tspan>
            </text>
            <text id="Overview" font-family="GDSTransportWebsite, GDS Transport Website" font-size="19" font-weight="300" fill="#FFFFFF">
                <tspan x="161" y="185">Overview</tspan>
            </text>
            <text id="Activity-today" font-family="GDSTransportWebsite-Bold, GDS Transport Website" font-size="36" font-weight="bold" line-spacing="27" fill="#000000">
                <tspan x="50" y="447">Activity  today</tspan>
            </text>
            <text id="Username" font-family="GDSTransportWebsite, GDS Transport Website" font-size="19" font-weight="300" line-spacing="26" fill="#C9C9C9">
                <tspan x="1110" y="38">Username</tspan>
            </text>
            <text id="Help" font-family="GDSTransportWebsite, GDS Transport Website" font-size="19" font-weight="300" line-spacing="26" fill="#FFFFFF">
                <tspan x="984" y="38">Help</tspan>
            </text>
            <text id="Search" font-family="GDSTransportWebsite, GDS Transport Website" font-size="19" font-weight="300" line-spacing="26" fill="#FFFFFF">
                <tspan x="857" y="38">Search</tspan>
            </text>
            <text id="Single-Intelligence-Platform" font-family="GDSTransportWebsite-Bold, GDS Transport Website" font-size="21" font-weight="bold" fill="#FFFFFF">
                <tspan x="93" y="40">Service Name</tspan>
            </text>
        </g>
    </g>
</svg>